<svg id="Layer_1" data-name="Layer 1" xmlns="http://www.w3.org/2000/svg" xmlns:xlink="http://www.w3.org/1999/xlink" viewBox="0 0 118.5 117.5"><defs><style>.cls-1,.cls-2,.cls-4,.cls-8{fill:none;}.cls-2{clip-rule:evenodd;}.cls-3{clip-path:url(#clip-path);}.cls-4,.cls-8{stroke:#ef4c81;stroke-miterlimit:10;}.cls-4{stroke-width:0.5px;}.cls-5{clip-path:url(#clip-path-2);}.cls-6{clip-path:url(#clip-path-3);}.cls-7{fill:#ef4c81;}.cls-8{stroke-width:0.75px;}.cls-9{fill:#fff;}</style><clipPath id="clip-path" transform="translate(-37.75 -24.75)"><rect class="cls-1" x="-1" width="196" height="266"/></clipPath><clipPath id="clip-path-2" transform="translate(-37.75 -24.75)"><path class="cls-2" d="M88.7,55.21a5,5,0,0,1-1.87.08,1.52,1.52,0,0,1-.65-.17c-.49-.25-.41-.66.08-.91a4.46,4.46,0,0,1,2-.41c.57,0,2.12.25,2.12.58A2.87,2.87,0,0,1,88.7,55.21ZM81.77,55c-.16.17-.41.17-.65.25a5,5,0,0,1-1.87-.08,2.87,2.87,0,0,1-1.71-.83c0-.33,1.55-.58,2.12-.58a4.46,4.46,0,0,1,2,.41C82.17,54.38,82.26,54.79,81.77,55Zm6.93-3.71a5.5,5.5,0,0,0-4,1.65,3.62,3.62,0,0,1-.73.58,3.62,3.62,0,0,1-.73-.58,5.5,5.5,0,0,0-4-1.65c-1.22,0-4.16,1.07-4.16,2.31,0,.83,1.63,2.81,3.34,3.38a5.19,5.19,0,0,0,3.67.17,3.19,3.19,0,0,0,1.3-.82,1.77,1.77,0,0,1,.65-.41,1.77,1.77,0,0,1,.65.41,2.73,2.73,0,0,0,1.3.82A5.69,5.69,0,0,0,89.67,57c1.71-.58,3.34-2.64,3.34-3.38C92.85,52.4,89.92,51.33,88.7,51.33Z"/></clipPath><clipPath id="clip-path-3" transform="translate(-37.75 -24.75)"><rect class="cls-1" x="75" y="50" width="19" height="18"/></clipPath></defs><title>yid_logo</title><g class="cls-3"><ellipse class="cls-4" cx="59.25" cy="58.75" rx="59" ry="58.5"/></g><g class="cls-5"><g class="cls-6"><rect class="cls-7" x="32.33" y="21.58" width="27.93" height="16.12"/></g></g><g class="cls-6"><line class="cls-8" x1="38.39" y1="29.79" x2="38.39" y2="41.84"/></g><g class="cls-3"><path class="cls-9" d="M82.26,62.38h1l2.25,6q1,2.74,1.3,3.7h.06q.41-1.26,1.34-3.76l2.25-5.9h1L86.69,74.72a9.62,9.62,0,0,1-1,2,2.59,2.59,0,0,1-.91.79,2.78,2.78,0,0,1-1.26.26,4.36,4.36,0,0,1-1.24-.21v-.84a4.56,4.56,0,0,0,1.22.16,1.64,1.64,0,0,0,.88-.23,2.19,2.19,0,0,0,.69-.73,9.57,9.57,0,0,0,.71-1.56L86.33,73Z" transform="translate(-37.75 -24.75)"/><path class="cls-9" d="M97.51,73.2a4.63,4.63,0,0,1-3.61-1.43,5.73,5.73,0,0,1-1.29-4,6.23,6.23,0,0,1,1.25-4.07,4.13,4.13,0,0,1,3.37-1.53,3.64,3.64,0,0,1,3,1.31A5.4,5.4,0,0,1,101.27,67v.78H93.62a5,5,0,0,0,1,3.34,3.59,3.59,0,0,0,2.87,1.15,8.86,8.86,0,0,0,1.6-.13,9.7,9.7,0,0,0,1.74-.55v.88a7.78,7.78,0,0,1-1.66.53A9.19,9.19,0,0,1,97.51,73.2ZM97.22,63a3.18,3.18,0,0,0-2.46,1A4.77,4.77,0,0,0,93.68,67h6.56a4.63,4.63,0,0,0-.8-2.89A2.64,2.64,0,0,0,97.22,63Z" transform="translate(-37.75 -24.75)"/><path class="cls-9" d="M110.78,70.24a2.52,2.52,0,0,1-1.08,2.19,5.28,5.28,0,0,1-3.08.77,7.33,7.33,0,0,1-3.38-.65v-1a7.45,7.45,0,0,0,3.38.8,4.45,4.45,0,0,0,2.39-.52,1.59,1.59,0,0,0,.82-1.39,1.69,1.69,0,0,0-.65-1.35A7.15,7.15,0,0,0,107,68a12.23,12.23,0,0,1-2.24-1,3.08,3.08,0,0,1-1-.94,2.36,2.36,0,0,1-.33-1.27,2.18,2.18,0,0,1,1-1.88,4.87,4.87,0,0,1,2.8-.69,8.38,8.38,0,0,1,3.26.64l-.36.88a7.65,7.65,0,0,0-2.9-.64,4.2,4.2,0,0,0-2.06.43,1.32,1.32,0,0,0-.76,1.19,1.65,1.65,0,0,0,.59,1.33,8.24,8.24,0,0,0,2.31,1.11,11.36,11.36,0,0,1,2.09.93,3,3,0,0,1,1,.94A2.3,2.3,0,0,1,110.78,70.24Z" transform="translate(-37.75 -24.75)"/><path class="cls-9" d="M90.48,75.44q0-.94.62-.94a.55.55,0,0,1,.47.24,1.2,1.2,0,0,1,.17.69,1.23,1.23,0,0,1-.17.69.54.54,0,0,1-.47.25Q90.48,76.38,90.48,75.44ZM91.58,89h-1V78.38h1Z" transform="translate(-37.75 -24.75)"/><path class="cls-9" d="M102.54,89V82.12a3.36,3.36,0,0,0-.67-2.33,2.72,2.72,0,0,0-2.09-.73A3.62,3.62,0,0,0,97,80a4.53,4.53,0,0,0-.88,3.12V89h-1V78.38H96l.19,1.46h.06a4,4,0,0,1,3.68-1.66q3.61,0,3.61,3.88V89Z" transform="translate(-37.75 -24.75)"/><path class="cls-9" d="M66.26,94.18a4.4,4.4,0,0,1,2,.42A4,4,0,0,1,69.75,96h.06q-.06-1.23-.06-2.41V89.8h1V105h-.63l-.24-1.62h-.08a3.93,3.93,0,0,1-3.48,1.82,4.17,4.17,0,0,1-3.36-1.37,6,6,0,0,1-1.16-4,6.66,6.66,0,0,1,1.15-4.21A4,4,0,0,1,66.26,94.18Zm0,.88a3,3,0,0,0-2.61,1.22,6,6,0,0,0-.87,3.54q0,4.51,3.51,4.51a3.18,3.18,0,0,0,2.64-1,5.54,5.54,0,0,0,.84-3.45v-.17a5.91,5.91,0,0,0-.83-3.54A3.15,3.15,0,0,0,66.26,95.06Z" transform="translate(-37.75 -24.75)"/><path class="cls-9" d="M74.14,91.44q0-.94.62-.94a.55.55,0,0,1,.47.24,1.2,1.2,0,0,1,.17.69,1.23,1.23,0,0,1-.17.69.54.54,0,0,1-.47.25Q74.14,92.38,74.14,91.44ZM75.24,105h-1V94.38h1Z" transform="translate(-37.75 -24.75)"/><path class="cls-9" d="M85.38,102.24a2.52,2.52,0,0,1-1.08,2.19,5.28,5.28,0,0,1-3.08.77,7.33,7.33,0,0,1-3.38-.65v-1a7.45,7.45,0,0,0,3.38.8,4.45,4.45,0,0,0,2.39-.52,1.59,1.59,0,0,0,.82-1.39,1.69,1.69,0,0,0-.65-1.35A7.15,7.15,0,0,0,81.64,100a12.23,12.23,0,0,1-2.24-1,3.08,3.08,0,0,1-1-.94,2.36,2.36,0,0,1-.33-1.27,2.18,2.18,0,0,1,1-1.88,4.87,4.87,0,0,1,2.8-.69,8.38,8.38,0,0,1,3.26.64l-.36.88a7.65,7.65,0,0,0-2.9-.64,4.2,4.2,0,0,0-2.06.43,1.32,1.32,0,0,0-.76,1.19A1.65,1.65,0,0,0,79.67,98,8.24,8.24,0,0,0,82,99.12a11.36,11.36,0,0,1,2.09.93,3,3,0,0,1,1,.94A2.3,2.3,0,0,1,85.38,102.24Z" transform="translate(-37.75 -24.75)"/><path class="cls-9" d="M96.39,94.38v.67l-2.2.14a3.75,3.75,0,0,1,.88,2.4,3.24,3.24,0,0,1-1,2.49,3.85,3.85,0,0,1-2.74,1,6,6,0,0,1-1-.06,2.53,2.53,0,0,0-.88.71,1.44,1.44,0,0,0-.3.87.8.8,0,0,0,.39.74,2.63,2.63,0,0,0,1.29.23h1.86a4.31,4.31,0,0,1,2.65.7,2.43,2.43,0,0,1,.92,2.07,2.94,2.94,0,0,1-1.36,2.59,7,7,0,0,1-3.88.91,5.34,5.34,0,0,1-3.1-.77,2.48,2.48,0,0,1-1.1-2.15,2.55,2.55,0,0,1,.68-1.82,3.52,3.52,0,0,1,1.84-1,1.87,1.87,0,0,1-.77-.58,1.38,1.38,0,0,1-.29-.86,2.27,2.27,0,0,1,1.36-1.87,3,3,0,0,1-1.45-1.2,3.41,3.41,0,0,1-.52-1.87,3.36,3.36,0,0,1,1-2.55,3.79,3.79,0,0,1,2.73-1,5,5,0,0,1,1.62.21ZM87.8,106.8q0,2.19,3.25,2.19,4.18,0,4.18-2.67a1.54,1.54,0,0,0-.65-1.39,4,4,0,0,0-2.12-.43H90.72Q87.8,104.5,87.8,106.8Zm.81-9.1a2.45,2.45,0,0,0,.75,1.91,3.34,3.34,0,0,0,4,0,2.57,2.57,0,0,0,.71-2,2.65,2.65,0,0,0-.73-2,2.87,2.87,0,0,0-2-.68,2.7,2.7,0,0,0-2,.73A2.74,2.74,0,0,0,88.61,97.7Z" transform="translate(-37.75 -24.75)"/><path class="cls-9" d="M99.41,94.38v6.87a3.36,3.36,0,0,0,.67,2.33,2.72,2.72,0,0,0,2.09.73,3.65,3.65,0,0,0,2.79-1,4.48,4.48,0,0,0,.89-3.12V94.38h1V105H106l-.18-1.46h-.06a4,4,0,0,1-3.68,1.66q-3.62,0-3.62-3.88V94.38Z" transform="translate(-37.75 -24.75)"/><path class="cls-9" d="M110.23,91.44q0-.94.62-.94a.55.55,0,0,1,.47.24,1.2,1.2,0,0,1,.17.69,1.23,1.23,0,0,1-.17.69.54.54,0,0,1-.47.25Q110.23,92.38,110.23,91.44Zm1.1,13.56h-1V94.38h1Z" transform="translate(-37.75 -24.75)"/><path class="cls-9" d="M121.47,102.24a2.52,2.52,0,0,1-1.08,2.19,5.28,5.28,0,0,1-3.08.77,7.33,7.33,0,0,1-3.38-.65v-1a7.45,7.45,0,0,0,3.38.8,4.45,4.45,0,0,0,2.39-.52,1.59,1.59,0,0,0,.82-1.39,1.69,1.69,0,0,0-.65-1.35,7.15,7.15,0,0,0-2.13-1.07,12.23,12.23,0,0,1-2.24-1,3.08,3.08,0,0,1-1-.94,2.36,2.36,0,0,1-.33-1.27,2.18,2.18,0,0,1,1-1.88,4.87,4.87,0,0,1,2.8-.69,8.38,8.38,0,0,1,3.26.64l-.36.88a7.65,7.65,0,0,0-2.9-.64,4.2,4.2,0,0,0-2.06.43,1.32,1.32,0,0,0-.76,1.19,1.65,1.65,0,0,0,.59,1.33,8.24,8.24,0,0,0,2.31,1.11,11.36,11.36,0,0,1,2.09.93,3,3,0,0,1,1,.94A2.3,2.3,0,0,1,121.47,102.24Z" transform="translate(-37.75 -24.75)"/><path class="cls-9" d="M128.49,105.2a4.63,4.63,0,0,1-3.61-1.43,5.73,5.73,0,0,1-1.29-4,6.23,6.23,0,0,1,1.25-4.07,4.13,4.13,0,0,1,3.37-1.53,3.64,3.64,0,0,1,3,1.31A5.4,5.4,0,0,1,132.25,99v.78h-7.65a5,5,0,0,0,1,3.34,3.59,3.59,0,0,0,2.87,1.15,8.86,8.86,0,0,0,1.6-.13,9.7,9.7,0,0,0,1.74-.55v.88a7.78,7.78,0,0,1-1.66.53A9.19,9.19,0,0,1,128.49,105.2ZM128.21,95a3.18,3.18,0,0,0-2.46,1A4.77,4.77,0,0,0,124.67,99h6.56a4.63,4.63,0,0,0-.8-2.89A2.64,2.64,0,0,0,128.21,95Z" transform="translate(-37.75 -24.75)"/></g></svg>